PathFileType	4	(X/Y/Z)	Shrugging.trc																																																																									
DataRate	CameraRate	NumFrames	NumMarkers	Units	OrigDataRate	OrigDataStartFrame	OrigNumFrames																																																																					
100	100	10	25	mm	100	1023	2047																																																																					
Frame#	Time	AA			AI			Ant_Sh			CV7			GH			LAH			Lat_Sh			LCAJ			LPH			Post_Sh			RAH			RCAJ			RHLE			RHME			RPH			RUA			SJN			SXS			TS			TV8			centelbow			centpxt8			centijc7			centLPHRPH			ScapulaThoracicContactPt		
		X1	Y1	Z1	X2	Y2	Z2	X3	Y3	Z3	X4	Y4	Z4	X5	Y5	Z5	X6	Y6	Z6	X7	Y7	Z7	X8	Y8	Z8	X9	Y9	Z9	X10	Y10	Z10	X11	Y11	Z11	X12	Y12	Z12	X13	Y13	Z13	X14	Y14	Z14	X15	Y15	Z15	X16	Y16	Z16	X17	Y17	Z17	X18	Y18	Z18	X19	Y19	Z19	X20	Y20	Z20	X21	Y21	Z21	X22	Y22	Z22	X23	Y23	Z23	X24	Y24	Z24	X25	Y25	Z25
																																																																												
1024	10.23	-87.79023743	1604.868286	1041.471924	-124.0915756	1401.042969	995.300354	22.88652802	1569.565918	1053.949829	-80.90626526	1612.179688	871.0288696	-31.65403557	1567.737061	1049.239258	148.0106049	1773.647583	835.8222046	-35.18645477	1594.411011	1079.782104	-22.60694885	1628.049316	732.7871704	-61.20608521	1733.434204	809.7163086	-116.1156235	1564.904785	1041.944336	132.7326355	1777.21521	931.0765991	-28.70825958	1630.100342	1010.630066	-41.10521317	1311.48999	1193.179199	-59.95389175	1252.088623	1087.857178	-65.42173004	1738.259766	925.5213013	-119.2943802	1434.88623	1117.13855	77.85017395	1528.795654	884.088562	147.8599701	1351.788208	891.8178101	-134.2118378	1540.000854	945.25	-91.92082214	1313.897217	868.5563965	-50.52955246	1281.789307	1140.518188	27.96957397	1332.842712	880.1871033	-1.528045654	1570.487671	877.5587158	-63.31390762	1735.846985	867.6188049	-115.3645503	1515.304036	994.0074259
1025	10.24	-87.79766846	1604.356079	1041.886719	-124.4046097	1400.734741	995.2891846	22.80379868	1568.960205	1054.278687	-81.14884186	1612.098999	871.0134277	-31.78185081	1567.146362	1049.541016	147.9352875	1773.600342	835.9138184	-35.33402634	1593.684326	1080.308105	-22.70754433	1627.613403	732.4743042	-61.41508484	1733.543823	809.8143311	-116.1932983	1564.341431	1042.214844	132.6894836	1777.127686	931.0863647	-28.74482346	1629.710083	1011.150208	-41.42051315	1310.639526	1193.074097	-60.11307907	1251.507202	1087.675659	-65.6271286	1738.312622	925.621521	-119.4242172	1434.230469	1117.116943	77.61582947	1528.66394	884.1132202	147.6797333	1351.672852	891.7770996	-134.4395142	1539.60437	945.4459839	-92.12400818	1313.818726	868.5585327	-50.76679611	1281.073364	1140.374878	27.77786255	1332.745789	880.1678162	-1.766506195	1570.38147	877.563324	-63.52110672	1735.928223	867.717926	-115.5472641	1514.898397	994.2072957
1026	10.25	-87.86386108	1603.710327	1042.528442	-124.62146	1400.426758	995.2813721	22.73109818	1568.005005	1054.794556	-81.36102295	1611.968872	870.9716797	-31.84658813	1566.333984	1049.986572	147.5306244	1773.529297	835.8131714	-35.38100815	1592.987427	1080.843628	-22.78458595	1627.184082	732.0232544	-61.64884567	1733.627319	809.8978882	-116.2501144	1563.749756	1042.551025	132.6520386	1777.08374	931.0563354	-28.72154045	1629.225708	1011.778442	-41.66565323	1309.650635	1192.911987	-60.3326683	1250.852051	1087.386597	-65.74501801	1738.37207	925.7307739	-119.5822296	1433.388916	1117.116577	77.45222473	1528.49231	884.0681763	147.4889984	1351.587891	891.7775269	-134.5724335	1539.2323	945.6486206	-92.36243439	1313.730347	868.5133057	-50.99916077	1280.251343	1140.149292	27.56328201	1332.659119	880.1454163	-1.954399109	1570.230591	877.519928	-63.69693184	1735.999695	867.8143311	-115.6859182	1514.456462	994.486145
1027	10.26	-87.83513641	1602.908203	1043.131714	-124.8832474	1399.860474	995.3477783	22.66272163	1567.182983	1055.351196	-81.52468872	1611.671143	870.9047852	-31.82732964	1565.543213	1050.531494	147.4329987	1773.487305	835.8768921	-35.35836792	1591.876343	1081.493286	-22.86086273	1626.677612	731.4858398	-61.86067581	1733.76709	809.986145	-116.3246689	1563.00061	1043.057495	132.0359344	1776.920288	931.3379517	-28.75943947	1628.559326	1012.649109	-41.70879364	1308.500366	1192.692993	-60.56044388	1250.008789	1087.12085	-65.93379211	1738.498413	925.8223267	-119.729866	1432.317261	1117.189331	77.28747559	1528.375366	884.1333008	147.2987976	1351.515991	891.749939	-134.6439514	1538.733521	945.9284058	-92.58336639	1313.630737	868.5802002	-51.13461876	1279.254578	1139.906921	27.35771561	1332.573364	880.1650696	-2.118606567	1570.023254	877.519043	-63.89723396	1736.132751	867.9042358	-115.7874451	1513.834066	994.8026326
1028	10.27	-87.80808258	1601.948975	1044.039307	-125.1641922	1399.158081	995.4311523	22.73487091	1566.128418	1056.075073	-81.67746735	1611.445679	870.8306885	-31.93606377	1564.589478	1051.211792	147.3130798	1773.450317	835.9126587	-35.44953537	1590.630005	1082.468872	-22.84143066	1625.891968	730.6702271	-62.06954193	1733.966919	810.0599976	-116.3920898	1562.212036	1043.699097	132.091507	1776.852905	931.3024292	-28.73175812	1627.712646	1013.738708	-42.14926529	1307.143188	1192.628662	-60.80366135	1248.947632	1086.822266	-65.99520111	1738.593628	925.8570557	-119.7124329	1431.032227	1117.297485	77.08862305	1528.291748	884.0927124	147.0578766	1351.38147	891.7692261	-134.7415619	1538.207275	946.2880249	-92.8447113	1313.492065	868.6051025	-51.47646332	1278.04541	1139.725464	27.10658264	1332.436768	880.1871643	-2.29442215	1569.868713	877.4617004	-64.03237152	1736.280273	867.9585266	-115.9046122	1513.104777	995.252828
1029	10.28	-87.65023041	1600.694824	1045.292358	-125.355629	1398.21167	995.6295776	22.80932617	1564.584717	1056.960693	-81.90137482	1611.203247	870.6397705	-31.87919998	1563.228394	1052.109497	147.1782227	1773.426758	835.8791504	-35.29952621	1589.138672	1083.424683	-22.8926239	1624.851929	729.869751	-62.27873993	1734.101807	810.1616211	-116.3761139	1561.133057	1044.614258	131.785141	1776.789429	931.3840942	-29.32384872	1626.618896	1015.245605	-42.14293671	1305.433228	1192.552246	-61.25380707	1247.762085	1086.586426	-66.18395233	1738.719971	925.9486084	-119.8154449	1429.571533	1117.467041	76.93997192	1528.1427	884.0565796	146.7674103	1351.25293	891.7288818	-134.7013092	1537.421997	946.7436523	-93.16389465	1313.293823	868.6526489	-51.69837189	1276.597656	1139.569336	26.80175781	1332.273376	880.1907654	-2.480701447	1569.672974	877.348175	-64.23134613	1736.410889	868.0551147	-115.9023895	1512.109497	995.8885295
1030	10.29	-87.44682312	1599.182861	1046.271606	-125.6052017	1397.417969	995.7712402	22.80342674	1563.203247	1057.784546	-82.15611267	1610.768433	870.4806519	-31.77632904	1561.78064	1053.005005	146.8753815	1773.345337	835.6552124	-35.18911743	1587.415405	1084.347656	-23.07493591	1623.685059	729.0883789	-62.45582199	1734.108154	810.2401733	-116.1375809	1559.581787	1045.617676	131.7329407	1776.744385	931.3110352	-28.61751747	1625.288208	1015.998657	-42.35925293	1303.398071	1192.631592	-61.40964508	1246.232422	1086.248535	-66.25834656	1738.713745	926.0385742	-119.7817993	1427.563599	1117.733032	76.81502533	1528.013916	884.0031128	146.4581451	1351.12146	891.7053223	-134.6110535	1536.519165	947.3267212	-93.42201996	1313.059204	868.6507568	-51.88444901	1274.815247	1139.440063	26.51806259	1332.090332	880.1780396	-2.670543671	1569.391174	877.2418823	-64.35708427	1736.41095	868.1393738	-115.8876928	1511.039998	996.4565226
1031	10.3	-87.32657623	1597.727051	1047.443359	-125.7778625	1396.088867	995.9539185	22.90509224	1561.350952	1058.603271	-82.29180145	1610.233521	870.4628906	-31.6858654	1560.06189	1053.863037	146.5908508	1773.357422	835.5508423	-35.01512146	1585.462036	1085.296631	-23.19901466	1622.50415	728.3051758	-62.65272522	1734.010376	810.3900757	-116.0196762	1558.07019	1046.540161	131.7815247	1776.717651	931.1765137	-28.46964073	1623.917236	1017.264893	-42.67686081	1301.387451	1192.845825	-61.53401947	1244.351318	1086.167603	-66.23394012	1738.616333	926.2266846	-119.6056519	1425.607544	1118.035645	76.79251862	1527.769165	883.9364014	146.189621	1350.91272	891.6688843	-134.5592804	1535.390137	947.999939	-93.68803406	1312.90918	868.7113037	-52.10544014	1272.869385	1139.506714	26.25079346	1331.91095	880.190094	-2.749641418	1569.001343	877.199646	-64.44333267	1736.313354	868.3083801	-115.8879064	1509.735352	997.1324056
1032	10.31	-87.16278839	1595.921875	1048.597046	-126.052475	1394.799194	996.1775513	23.00101662	1559.263672	1059.375488	-82.45665741	1609.63269	870.5858154	-31.64295006	1558.075073	1054.680542	146.4187622	1773.352173	835.4200439	-34.91057587	1583.292847	1086.328491	-23.51596832	1620.897583	727.3850708	-62.76871109	1733.93396	810.5074463	-115.8235092	1556.244019	1047.447998	131.8372192	1776.734253	931.0054321	-28.36733437	1622.139404	1018.445923	-42.70524979	1299.083984	1192.935059	-61.69234085	1242.318481	1085.911133	-66.23449707	1738.531494	926.4418335	-119.4765854	1423.221558	1118.309814	76.93489075	1527.415039	883.8220825	146.0308228	1350.650391	891.6092529	-134.6044922	1534.354004	948.5256348	-93.85313416	1312.719727	868.7297974	-52.19879532	1270.701233	1139.423096	26.0888443	1331.685059	880.1695251	-2.760883331	1568.523865	877.203949	-64.50160408	1736.232727	868.4746399	-115.9399185	1508.358358	997.766744
1033	10.32	-87.04334259	1593.90271	1049.509277	-126.3114014	1393.550659	996.3504028	23.07985115	1557.284424	1060.145142	-82.62776947	1609.116699	870.87677	-31.64209366	1556.186157	1055.534546	146.5346375	1773.365967	835.5640259	-34.81484222	1580.959106	1087.290527	-23.67109489	1619.412842	726.3175049	-62.99090958	1733.896362	810.7255249	-115.5631409	1554.501709	1048.463989	131.9087372	1776.704834	930.8899536	-28.31138611	1620.562134	1019.848511	-42.5719223	1296.586914	1192.948364	-61.80693054	1240.415405	1085.73584	-66.21653748	1738.425903	926.6942749	-119.2345505	1420.654541	1118.648926	77.07264709	1526.914307	883.760498	145.803009	1350.271118	891.4499512	-134.4936523	1533.360596	948.9979858	-94.07990265	1312.492798	868.7849121	-52.18942642	1268.50116	1139.342102	25.86155319	1331.381958	880.1174316	-2.777561188	1568.015503	877.318634	-64.60372353	1736.161133	868.7098999	-115.9494654	1506.937988	998.2858887
